<svg id="visual" viewBox="0 0 960 540" width="960" height="540" xmlns="http://www.w3.org/2000/svg" xmlns:xlink="http://www.w3.org/1999/xlink" version="1.1">
  <path d="M0 150 C 120 200, 240 100, 360 150 C 480 200, 600 100, 720 150 C 840 200, 960 100, 1080 150 L 1080 0 L 0 0 Z" fill="#003366"></path>
  <path d="M0 250 C 120 300, 240 200, 360 250 C 480 300, 600 200, 720 250 C 840 300, 960 200, 1080 250 L 1080 150 L 0 150 Z" fill="#004080"></path>
  <path d="M0 350 C 120 400, 240 300, 360 350 C 480 400, 600 300, 720 350 C 840 400, 960 300, 1080 350 L 1080 250 L 0 250 Z" fill="#0059b3"></path>
  <path d="M0 450 C 120 500, 240 400, 360 450 C 480 500, 600 400, 720 450 C 840 500, 960 400, 1080 450 L 1080 350 L 0 350 Z" fill="#0073e6"></path>
  <path d="M0 540 C 120 540, 240 500, 360 540 C 480 540, 600 500, 720 540 C 840 540, 960 500, 1080 540 L 1080 450 L 0 450 Z" fill="#3399ff"></path>
</svg>
