<svg id="visual" viewBox="0 0 960 540" width="960" height="540" xmlns="http://www.w3.org/2000/svg" xmlns:xlink="http://www.w3.org/1999/xlink" version="1.1">
    <path d="M0 100L80 150L160 120L240 130L320 160L400 160L480 170L560 180L640 140L720 110L800 130L880 150L960 170L960 0L880 0L800 0L720 0L640 0L560 0L480 0L400 0L320 0L240 0L160 0L80 0L0 0Z" fill="#65000b"></path>
    <path d="M0 180L80 190L160 210L240 220L320 210L400 240L480 230L560 220L640 180L720 140L800 190L880 190L960 150L960 130L880 120L800 100L720 130L640 170L560 160L480 150L400 150L320 130L240 120L160 130L80 160L0 120Z" fill="#65000b"></path>
    <path d="M0 220L80 250L160 290L240 310L320 300L400 330L480 290L560 280L640 260L720 250L800 290L880 260L960 230L960 180L880 180L800 140L720 180L640 210L560 220L480 230L400 200L320 210L240 220L160 210L80 190L0 180Z" fill="#65000b"></path>
    <path d="M0 350L80 390L160 340L240 360L320 420L400 440L480 360L560 390L640 350L720 380L800 370L880 360L960 400L960 250L880 280L800 250L720 260L640 280L560 300L480 330L400 300L320 310L240 300L160 280L80 240L0 230Z" fill="#65000b"></path>
    <path d="M0 540L80 540L160 540L240 540L320 540L400 540L480 540L560 540L640 540L720 540L800 540L880 540L960 540L960 400L880 370L800 380L720 350L640 390L560 360L480 440L400 420L320 360L240 300L160 350L80 400L0 360Z" fill="#65000b"></path>
</svg>